<mxfile host="www.draw.io" modified="2020-02-13T08:21:14.455Z" agent="Mozilla/5.0 (Macintosh; Intel Mac OS X 10_15_2) AppleWebKit/537.36 (KHTML, like Gecko) Chrome/80.0.3987.100 Safari/537.36" etag="zlOG6CvIV2iZTuidlUOI" version="12.6.8" type="github">
  <diagram id="qOnw77V4dKQB0KYPs9Qt" name="Page-1">
    <mxGraphModel dx="2066" dy="1131" grid="1" gridSize="10" guides="1" tooltips="1" connect="1" arrows="1" fold="1" page="1" pageScale="1" pageWidth="827" pageHeight="1169" math="0" shadow="0">
      <root>
        <mxCell id="0"/>
        <mxCell id="1" parent="0"/>
        <mxCell id="SIAdzRf71X4A6DqXhsBe-1" value="" style="shape=mxgraph.signs.transportation.car_1;html=1;fillColor=#000000;strokeColor=none;verticalLabelPosition=bottom;verticalAlign=top;align=center;" vertex="1" parent="1">
          <mxGeometry x="159.25" y="430" width="99" height="88" as="geometry"/>
        </mxCell>
        <mxCell id="SIAdzRf71X4A6DqXhsBe-2" value="" style="shape=mxgraph.signs.transportation.car_1;html=1;fillColor=#000000;strokeColor=none;verticalLabelPosition=bottom;verticalAlign=top;align=center;" vertex="1" parent="1">
          <mxGeometry x="479.25" y="430" width="99" height="88" as="geometry"/>
        </mxCell>
        <mxCell id="SIAdzRf71X4A6DqXhsBe-3" value="" style="shape=mxgraph.signs.transportation.car_1;html=1;fillColor=#000000;strokeColor=none;verticalLabelPosition=bottom;verticalAlign=top;align=center;" vertex="1" parent="1">
          <mxGeometry x="319.25" y="430" width="99" height="88" as="geometry"/>
        </mxCell>
        <mxCell id="SIAdzRf71X4A6DqXhsBe-6" value="" style="image;html=1;labelBackgroundColor=#ffffff;image=img/lib/clip_art/computers/Server_Rack_128x128.png" vertex="1" parent="1">
          <mxGeometry x="319.25" y="210" width="80" height="80" as="geometry"/>
        </mxCell>
        <mxCell id="SIAdzRf71X4A6DqXhsBe-9" value="" style="verticalLabelPosition=bottom;verticalAlign=top;html=1;shadow=0;dashed=0;strokeWidth=1;shape=mxgraph.android.phone2;strokeColor=#c0c0c0;" vertex="1" parent="1">
          <mxGeometry x="230" y="70" width="39" height="60" as="geometry"/>
        </mxCell>
        <mxCell id="SIAdzRf71X4A6DqXhsBe-10" value="" style="verticalLabelPosition=bottom;verticalAlign=top;html=1;shadow=0;dashed=0;strokeWidth=1;shape=mxgraph.android.phone2;strokeColor=#c0c0c0;" vertex="1" parent="1">
          <mxGeometry x="349.25" y="70" width="39" height="60" as="geometry"/>
        </mxCell>
        <mxCell id="SIAdzRf71X4A6DqXhsBe-11" value="" style="verticalLabelPosition=bottom;verticalAlign=top;html=1;shadow=0;dashed=0;strokeWidth=1;shape=mxgraph.android.phone2;strokeColor=#c0c0c0;" vertex="1" parent="1">
          <mxGeometry x="470" y="70" width="39" height="60" as="geometry"/>
        </mxCell>
        <mxCell id="SIAdzRf71X4A6DqXhsBe-12" value="" style="endArrow=classic;startArrow=classic;html=1;entryX=0;entryY=0;entryDx=0;entryDy=0;" edge="1" parent="1" target="SIAdzRf71X4A6DqXhsBe-6">
          <mxGeometry width="50" height="50" relative="1" as="geometry">
            <mxPoint x="260" y="140" as="sourcePoint"/>
            <mxPoint x="310" y="180" as="targetPoint"/>
          </mxGeometry>
        </mxCell>
        <mxCell id="SIAdzRf71X4A6DqXhsBe-13" value="" style="endArrow=classic;startArrow=classic;html=1;" edge="1" parent="1">
          <mxGeometry width="50" height="50" relative="1" as="geometry">
            <mxPoint x="359" y="200" as="sourcePoint"/>
            <mxPoint x="370" y="140" as="targetPoint"/>
          </mxGeometry>
        </mxCell>
        <mxCell id="SIAdzRf71X4A6DqXhsBe-14" value="" style="endArrow=classic;startArrow=classic;html=1;exitX=1;exitY=0;exitDx=0;exitDy=0;" edge="1" parent="1" source="SIAdzRf71X4A6DqXhsBe-6">
          <mxGeometry width="50" height="50" relative="1" as="geometry">
            <mxPoint x="460" y="270" as="sourcePoint"/>
            <mxPoint x="490" y="140" as="targetPoint"/>
          </mxGeometry>
        </mxCell>
        <mxCell id="SIAdzRf71X4A6DqXhsBe-15" value="" style="endArrow=classic;startArrow=classic;html=1;entryX=0.25;entryY=1;entryDx=0;entryDy=0;" edge="1" parent="1" target="SIAdzRf71X4A6DqXhsBe-6">
          <mxGeometry width="50" height="50" relative="1" as="geometry">
            <mxPoint x="220" y="400" as="sourcePoint"/>
            <mxPoint x="320" y="340" as="targetPoint"/>
          </mxGeometry>
        </mxCell>
        <mxCell id="SIAdzRf71X4A6DqXhsBe-17" value="" style="endArrow=classic;startArrow=classic;html=1;entryX=0.5;entryY=1;entryDx=0;entryDy=0;" edge="1" parent="1" target="SIAdzRf71X4A6DqXhsBe-6">
          <mxGeometry width="50" height="50" relative="1" as="geometry">
            <mxPoint x="370" y="400" as="sourcePoint"/>
            <mxPoint x="430" y="340" as="targetPoint"/>
          </mxGeometry>
        </mxCell>
        <mxCell id="SIAdzRf71X4A6DqXhsBe-18" value="" style="endArrow=classic;startArrow=classic;html=1;entryX=0.75;entryY=1;entryDx=0;entryDy=0;" edge="1" parent="1" target="SIAdzRf71X4A6DqXhsBe-6">
          <mxGeometry width="50" height="50" relative="1" as="geometry">
            <mxPoint x="520" y="400" as="sourcePoint"/>
            <mxPoint x="550" y="290" as="targetPoint"/>
          </mxGeometry>
        </mxCell>
      </root>
    </mxGraphModel>
  </diagram>
</mxfile>
